<svg width="68" height="15" viewBox="0 0 160 35" fill="none" xmlns="http://www.w3.org/2000/svg"><path d="M61.539 3.387H44.755v16.936H61.54z" fill="#83a43b"/><path d="M41.399 3.387h-7.833v16.936H41.4zm20.14 20.323H44.755v7.903H61.54z" fill="#fffef0"/><path d="M41.399 23.71h-7.833v7.903H41.4z" fill="#957dc0"/><path d="M91.748 29.615H74.703V0h-5.332v35h22.377zM30.21 0v35h34.685V0zm30.684 19.657H45.417V4.042h15.477zM41.414 4.042v15.615h-7.202V4.042zm-7.202 19.645h7.203v7.271h-7.203zm11.204 7.271v-7.27h15.478v7.27zM121.966 35h6.705L116.349 0h-7.815l-12.31 35h6.704l2.911-8.614h13.206zm-14.304-14 4.644-13.729h.26L117.221 21zm25.485 14V0h6.003v16.157h.518L152.444 0h7.468L146.97 15.637 160 35h-7.302l-9.913-15.061-3.646 4.561V35zM0 35v-4.008L17.779 5.385H0V0h25.734v3.827L7.854 29.615h17.88V35z" fill="#071f07"/></svg>